<mxfile host="Electron" modified="2024-06-06T08:53:09.489Z" agent="Mozilla/5.0 (Windows NT 10.0; Win64; x64) AppleWebKit/537.36 (KHTML, like Gecko) draw.io/24.4.8 Chrome/124.0.6367.207 Electron/30.0.6 Safari/537.36" etag="LJIVzg50qe6RGHrt4Soa" version="24.4.8" type="device">
  <diagram name="Page-1" id="6B25BJ7-MOY6aGn2Ai_U">
    <mxGraphModel dx="1257" dy="760" grid="1" gridSize="10" guides="1" tooltips="1" connect="1" arrows="1" fold="1" page="1" pageScale="1" pageWidth="3300" pageHeight="4681" math="0" shadow="0">
      <root>
        <mxCell id="0" />
        <mxCell id="1" parent="0" />
        <mxCell id="6WNdYaCo972C8atlR3n3-50" value="" style="edgeStyle=orthogonalEdgeStyle;rounded=0;orthogonalLoop=1;jettySize=auto;html=1;" edge="1" parent="1" source="6WNdYaCo972C8atlR3n3-48" target="6WNdYaCo972C8atlR3n3-49">
          <mxGeometry relative="1" as="geometry" />
        </mxCell>
        <mxCell id="6WNdYaCo972C8atlR3n3-48" value="START" style="rounded=1;whiteSpace=wrap;html=1;" vertex="1" parent="1">
          <mxGeometry x="40" y="40" width="120" height="40" as="geometry" />
        </mxCell>
        <mxCell id="6WNdYaCo972C8atlR3n3-53" value="" style="edgeStyle=orthogonalEdgeStyle;rounded=0;orthogonalLoop=1;jettySize=auto;html=1;" edge="1" parent="1" source="6WNdYaCo972C8atlR3n3-49" target="6WNdYaCo972C8atlR3n3-52">
          <mxGeometry relative="1" as="geometry" />
        </mxCell>
        <mxCell id="6WNdYaCo972C8atlR3n3-49" value="init output queue, operator stack" style="rounded=0;whiteSpace=wrap;html=1;" vertex="1" parent="1">
          <mxGeometry x="40" y="120" width="120" height="40" as="geometry" />
        </mxCell>
        <mxCell id="6WNdYaCo972C8atlR3n3-58" value="" style="edgeStyle=orthogonalEdgeStyle;rounded=0;orthogonalLoop=1;jettySize=auto;html=1;" edge="1" parent="1" source="6WNdYaCo972C8atlR3n3-52" target="6WNdYaCo972C8atlR3n3-54">
          <mxGeometry relative="1" as="geometry" />
        </mxCell>
        <mxCell id="6WNdYaCo972C8atlR3n3-52" value="for each token" style="whiteSpace=wrap;html=1;rounded=0;" vertex="1" parent="1">
          <mxGeometry x="40" y="200" width="120" height="40" as="geometry" />
        </mxCell>
        <mxCell id="6WNdYaCo972C8atlR3n3-59" value="Y" style="edgeStyle=orthogonalEdgeStyle;rounded=0;orthogonalLoop=1;jettySize=auto;html=1;" edge="1" parent="1" source="6WNdYaCo972C8atlR3n3-54" target="6WNdYaCo972C8atlR3n3-55">
          <mxGeometry relative="1" as="geometry" />
        </mxCell>
        <mxCell id="6WNdYaCo972C8atlR3n3-61" value="N" style="edgeStyle=orthogonalEdgeStyle;rounded=0;orthogonalLoop=1;jettySize=auto;html=1;" edge="1" parent="1" source="6WNdYaCo972C8atlR3n3-54" target="6WNdYaCo972C8atlR3n3-60">
          <mxGeometry relative="1" as="geometry" />
        </mxCell>
        <mxCell id="6WNdYaCo972C8atlR3n3-54" value="token a number?" style="rhombus;whiteSpace=wrap;html=1;" vertex="1" parent="1">
          <mxGeometry x="40" y="280" width="120" height="120" as="geometry" />
        </mxCell>
        <mxCell id="6WNdYaCo972C8atlR3n3-55" value="add onto ouput queue" style="rounded=0;whiteSpace=wrap;html=1;" vertex="1" parent="1">
          <mxGeometry x="200" y="320" width="120" height="40" as="geometry" />
        </mxCell>
        <mxCell id="6WNdYaCo972C8atlR3n3-63" value="" style="edgeStyle=orthogonalEdgeStyle;rounded=0;orthogonalLoop=1;jettySize=auto;html=1;" edge="1" parent="1" source="6WNdYaCo972C8atlR3n3-60">
          <mxGeometry relative="1" as="geometry">
            <mxPoint x="200" y="500" as="targetPoint" />
          </mxGeometry>
        </mxCell>
        <mxCell id="6WNdYaCo972C8atlR3n3-70" value="" style="edgeStyle=orthogonalEdgeStyle;rounded=0;orthogonalLoop=1;jettySize=auto;html=1;" edge="1" parent="1" source="6WNdYaCo972C8atlR3n3-60" target="6WNdYaCo972C8atlR3n3-69">
          <mxGeometry relative="1" as="geometry" />
        </mxCell>
        <mxCell id="6WNdYaCo972C8atlR3n3-60" value="token a operator?" style="rhombus;whiteSpace=wrap;html=1;" vertex="1" parent="1">
          <mxGeometry x="40" y="440" width="120" height="120" as="geometry" />
        </mxCell>
        <mxCell id="6WNdYaCo972C8atlR3n3-67" value="Y" style="edgeStyle=orthogonalEdgeStyle;rounded=0;orthogonalLoop=1;jettySize=auto;html=1;" edge="1" parent="1" source="6WNdYaCo972C8atlR3n3-65" target="6WNdYaCo972C8atlR3n3-66">
          <mxGeometry relative="1" as="geometry" />
        </mxCell>
        <mxCell id="6WNdYaCo972C8atlR3n3-65" value="operator.top&lt;div&gt;precedence &amp;gt;= token&lt;/div&gt;&lt;div&gt;precedence&lt;/div&gt;" style="rhombus;whiteSpace=wrap;html=1;" vertex="1" parent="1">
          <mxGeometry x="200" y="440" width="120" height="120" as="geometry" />
        </mxCell>
        <mxCell id="6WNdYaCo972C8atlR3n3-68" style="edgeStyle=orthogonalEdgeStyle;rounded=0;orthogonalLoop=1;jettySize=auto;html=1;entryX=1;entryY=0.5;entryDx=0;entryDy=0;" edge="1" parent="1" source="6WNdYaCo972C8atlR3n3-66" target="6WNdYaCo972C8atlR3n3-65">
          <mxGeometry relative="1" as="geometry">
            <Array as="points">
              <mxPoint x="340" y="620" />
              <mxPoint x="340" y="500" />
            </Array>
          </mxGeometry>
        </mxCell>
        <mxCell id="6WNdYaCo972C8atlR3n3-66" value="add operator.pop() onto output queue" style="rounded=0;whiteSpace=wrap;html=1;" vertex="1" parent="1">
          <mxGeometry x="200" y="600" width="120" height="40" as="geometry" />
        </mxCell>
        <mxCell id="6WNdYaCo972C8atlR3n3-72" value="" style="edgeStyle=orthogonalEdgeStyle;rounded=0;orthogonalLoop=1;jettySize=auto;html=1;" edge="1" parent="1" source="6WNdYaCo972C8atlR3n3-69" target="6WNdYaCo972C8atlR3n3-71">
          <mxGeometry relative="1" as="geometry" />
        </mxCell>
        <mxCell id="6WNdYaCo972C8atlR3n3-69" value="end for each" style="rounded=0;whiteSpace=wrap;html=1;" vertex="1" parent="1">
          <mxGeometry x="40" y="600" width="120" height="40" as="geometry" />
        </mxCell>
        <mxCell id="6WNdYaCo972C8atlR3n3-74" value="" style="edgeStyle=orthogonalEdgeStyle;rounded=0;orthogonalLoop=1;jettySize=auto;html=1;" edge="1" parent="1" source="6WNdYaCo972C8atlR3n3-71" target="6WNdYaCo972C8atlR3n3-73">
          <mxGeometry relative="1" as="geometry" />
        </mxCell>
        <mxCell id="6WNdYaCo972C8atlR3n3-71" value="for each operator" style="rounded=0;whiteSpace=wrap;html=1;" vertex="1" parent="1">
          <mxGeometry x="40" y="680" width="120" height="40" as="geometry" />
        </mxCell>
        <mxCell id="6WNdYaCo972C8atlR3n3-77" value="" style="edgeStyle=orthogonalEdgeStyle;rounded=0;orthogonalLoop=1;jettySize=auto;html=1;" edge="1" parent="1" source="6WNdYaCo972C8atlR3n3-73" target="6WNdYaCo972C8atlR3n3-75">
          <mxGeometry relative="1" as="geometry" />
        </mxCell>
        <mxCell id="6WNdYaCo972C8atlR3n3-73" value="add operator.pop() onto output queue" style="rounded=0;whiteSpace=wrap;html=1;" vertex="1" parent="1">
          <mxGeometry x="40" y="760" width="120" height="40" as="geometry" />
        </mxCell>
        <mxCell id="6WNdYaCo972C8atlR3n3-78" value="" style="edgeStyle=orthogonalEdgeStyle;rounded=0;orthogonalLoop=1;jettySize=auto;html=1;" edge="1" parent="1" source="6WNdYaCo972C8atlR3n3-75" target="6WNdYaCo972C8atlR3n3-76">
          <mxGeometry relative="1" as="geometry" />
        </mxCell>
        <mxCell id="6WNdYaCo972C8atlR3n3-75" value="end for each" style="rounded=0;whiteSpace=wrap;html=1;" vertex="1" parent="1">
          <mxGeometry x="40" y="840" width="120" height="40" as="geometry" />
        </mxCell>
        <mxCell id="6WNdYaCo972C8atlR3n3-76" value="END" style="rounded=1;whiteSpace=wrap;html=1;" vertex="1" parent="1">
          <mxGeometry x="40" y="920" width="120" height="40" as="geometry" />
        </mxCell>
      </root>
    </mxGraphModel>
  </diagram>
</mxfile>
